HIERARCHY
ROOT COG
{
	OFFSET 0.000000 0.103240 1.001711
	CHANNELS 6 Xposition Yposition Zposition Xrotation Yrotation Zrotation
	JOINT Back
	{
		OFFSET -0.000000 -0.047720 -0.000292
		CHANNELS 3 Xrotation Yrotation Zrotation
		JOINT Neck
		{
			OFFSET 0.000000 0.009902 0.479940
			CHANNELS 3 Xrotation Yrotation Zrotation
			JOINT Head
			{
				OFFSET 0.000000 0.000000 0.114125
				CHANNELS 3 Xrotation Yrotation Zrotation
				End Site
				{
					OFFSET -0.000000 -0.035047 0.203765
				}
			}
		}
		JOINT Shoulder.Left
		{
			OFFSET 0.000000 0.009902 0.479940
			CHANNELS 3 Xrotation Yrotation Zrotation
			JOINT Upperarm.Left
			{
				OFFSET 0.171189 0.023766 0.000000
				CHANNELS 3 Xrotation Yrotation Zrotation
				JOINT Forearm.Left
				{
					OFFSET 0.299995 0.024210 0.001595
					CHANNELS 3 Xrotation Yrotation Zrotation
					JOINT Hand.Left
					{
						OFFSET 0.246916 -0.014695 0.015059
						CHANNELS 3 Xrotation Yrotation Zrotation
						JOINT Fingers1.Left
						{
							OFFSET 0.111888 -0.008712 0.003838
							CHANNELS 6 Xposition Yposition Zposition Xrotation Yrotation Zrotation
							JOINT Fingers2.Left
							{
								OFFSET 0.049755 -0.000245 0.000000
								CHANNELS 3 Xrotation Yrotation Zrotation
								End Site
								{
									OFFSET 0.051310 -0.000955 0.000000
								}
							}
						}
						JOINT Thumb1.Left
						{
							OFFSET 0.042902 -0.045156 -0.007728
							CHANNELS 6 Xposition Yposition Zposition Xrotation Yrotation Zrotation
							JOINT Thumb2.Left
							{
								OFFSET 0.012928 -0.056380 0.001561
								CHANNELS 3 Xrotation Yrotation Zrotation
								End Site
								{
									OFFSET 0.009035 -0.037598 0.001873
								}
							}
						}
					}
				}
			}
		}
		JOINT Shoulder.Right
		{
			OFFSET 0.000000 0.009902 0.479940
			CHANNELS 3 Xrotation Yrotation Zrotation
			JOINT Upperarm.Right
			{
				OFFSET -0.171189 0.023766 0.000000
				CHANNELS 3 Xrotation Yrotation Zrotation
				JOINT Forearm.Right
				{
					OFFSET -0.299995 0.024210 0.001595
					CHANNELS 3 Xrotation Yrotation Zrotation
					JOINT Hand.Right
					{
						OFFSET -0.246916 -0.014695 0.015059
						CHANNELS 3 Xrotation Yrotation Zrotation
						JOINT Fingers1.Right
						{
							OFFSET -0.111888 -0.008712 0.003838
							CHANNELS 3 Xrotation Yrotation Zrotation
							JOINT Fingers2.Right
							{
								OFFSET -0.049755 -0.000245 0.000000
								CHANNELS 3 Xrotation Yrotation Zrotation
								End Site
								{
									OFFSET -0.051310 -0.000955 0.000000
								}
							}
						}
						JOINT Thumb1.Right
						{
							OFFSET -0.042902 -0.045156 -0.007728
							CHANNELS 6 Xposition Yposition Zposition Xrotation Yrotation Zrotation
							JOINT Thumb2.Right
							{
								OFFSET -0.012928 -0.056380 0.001561
								CHANNELS 3 Xrotation Yrotation Zrotation
								End Site
								{
									OFFSET -0.009035 -0.037598 0.001873
								}
							}
						}
					}
				}
			}
		}
	}
	JOINT Hip
	{
		OFFSET -0.000000 -0.047720 -0.000292
		CHANNELS 3 Xrotation Yrotation Zrotation
		JOINT Thigh.Left
		{
			OFFSET 0.099312 -0.010710 -0.032880
			CHANNELS 6 Xposition Yposition Zposition Xrotation Yrotation Zrotation
			JOINT Shin.Left
			{
				OFFSET 0.042563 -0.006785 -0.409860
				CHANNELS 3 Xrotation Yrotation Zrotation
				JOINT Foot.Left
				{
					OFFSET 0.052065 0.047751 -0.491449
					CHANNELS 3 Xrotation Yrotation Zrotation
					JOINT Toes.Left
					{
						OFFSET 0.000155 -0.140649 -0.037025
						CHANNELS 3 Xrotation Yrotation Zrotation
						End Site
						{
							OFFSET -0.000003 -0.078803 -0.008141
						}
					}
				}
			}
		}
		JOINT Thigh.Right
		{
			OFFSET -0.099312 -0.010710 -0.032880
			CHANNELS 6 Xposition Yposition Zposition Xrotation Yrotation Zrotation
			JOINT Shin.Right
			{
				OFFSET -0.042563 -0.006785 -0.409860
				CHANNELS 3 Xrotation Yrotation Zrotation
				JOINT Foot.Right
				{
					OFFSET -0.052065 0.047751 -0.491449
					CHANNELS 3 Xrotation Yrotation Zrotation
					JOINT Toes.Right
					{
						OFFSET -0.000155 -0.140649 -0.037025
						CHANNELS 3 Xrotation Yrotation Zrotation
						End Site
						{
							OFFSET 0.000003 -0.078803 -0.008141
						}
					}
				}
			}
		}
	}
}
MOTION
Frames: 11
Frame Time: 0.040000
-0.011894 0.103933 0.888466 -0.000000 0.000000 0.000000 12.552622 1.600070 14.508129 -5.275170 -0.455374 -17.001063 0.000001 -0.000030 0.521546 -0.000000 -0.000000 -0.000001 41.168911 72.276850 17.186419 -0.502734 -0.549519 8.385834 9.802389 1.252197 -1.146323 0.111888 -0.008712 0.003838 -29.235368 97.971817 31.079417 5.102535 57.661741 -1.024045 0.042901 -0.045156 -0.007728 2.131271 -0.638357 -1.785159 -1.702366 0.551413 1.511815 0.000000 -0.000000 -0.000000 -40.476234 -78.256148 -0.000026 4.291082 -1.324691 52.407755 -12.427373 7.704745 37.419055 13.458510 -99.177557 38.944847 -68.615432 -75.556495 -46.156291 -0.042902 -0.045156 -0.007728 24.325627 -27.709391 0.647395 -34.708341 -24.247911 -41.731257 -0.000000 -0.000000 1.983828 0.099312 -0.010710 -0.032880 -38.037645 13.124988 -7.637586 8.503183 -0.836522 0.876379 -7.845140 -5.351271 4.334064 -0.000001 0.000001 0.000000 -0.099312 -0.010710 -0.032880 34.866207 -13.036697 -11.623070 79.748421 1.465163 -10.339291 46.135957 -3.039726 -7.585012 0.000000 -0.000000 0.000000 
-0.011894 0.103845 0.902789 -0.000000 0.000000 0.000000 11.631617 2.233564 13.885547 -4.961151 -1.339802 -16.638684 0.000001 -0.000030 0.521546 0.000001 -0.000000 0.000000 40.620511 72.316438 16.864466 -0.504037 -0.551173 8.409508 9.647924 1.681962 -1.181090 0.111888 -0.008712 0.003838 -29.235368 97.971817 31.079423 5.102535 57.661734 -1.024046 0.042902 -0.045156 -0.007728 2.131272 -0.638358 -1.785160 -1.702366 0.551416 1.511816 0.000001 -0.000000 0.000000 -39.738860 -78.268442 -0.141239 4.394472 -1.307123 53.589910 -12.492732 7.782837 37.517430 13.458504 -99.177557 38.944861 -68.615432 -75.556495 -46.156294 -0.042902 -0.045156 -0.007728 24.325623 -27.709393 0.647392 -34.708344 -24.247906 -41.731250 -0.000000 -0.000000 2.140004 0.099312 -0.010710 -0.032880 -36.003846 12.649886 -7.637023 8.148438 -0.804307 0.837422 -8.369742 -4.963571 4.300296 0.000004 -0.000000 -0.000000 -0.099312 -0.010710 -0.032880 31.897919 -12.672295 -11.888836 80.364559 1.418525 -10.413549 45.880344 -2.968655 -7.551111 -0.000000 -0.000000 0.000000 
-0.011894 0.103616 0.940241 -0.000000 0.000000 0.000000 8.943179 3.882774 12.018456 -3.945240 -3.680454 -15.416878 0.000001 -0.000030 0.521546 -0.000001 0.000000 -0.000001 38.937546 72.443636 15.881281 -0.508016 -0.556228 8.481858 9.176304 2.969559 -1.318490 0.111888 -0.008712 0.003838 -29.235361 97.971817 31.079406 5.102538 57.661741 -1.024044 0.042902 -0.045156 -0.007728 2.131272 -0.638359 -1.785158 -1.702366 0.551414 1.511817 -0.000001 -0.000000 0.000000 -37.474724 -78.308385 -0.570440 4.701614 -1.241815 57.129837 -12.690754 8.020353 37.794725 13.458516 -99.177557 38.944851 -68.615445 -75.556495 -46.156294 -0.042902 -0.045156 -0.007728 24.325625 -27.709391 0.647394 -34.708344 -24.247906 -41.731257 -0.000000 -0.000001 2.612296 0.099312 -0.010710 -0.032880 -29.849839 11.211083 -7.529292 7.099847 -0.707662 0.723431 -9.938884 -3.801327 4.221039 -0.000002 0.000000 0.000000 -0.099312 -0.010710 -0.032880 22.652806 -11.450617 -12.589917 82.188486 1.275795 -10.630420 45.094200 -2.753663 -7.445572 0.000002 0.000000 0.000000 
-0.011894 0.103387 0.977684 -0.000000 0.000000 0.000000 5.480961 5.499842 9.465659 -2.409200 -6.077882 -13.463084 0.000002 -0.000030 0.521546 -0.000000 0.000000 -0.000001 36.052723 72.681047 14.215344 -0.514503 -0.564497 8.600047 8.410003 5.012985 -1.613753 0.111888 -0.008712 0.003838 -29.235371 97.971817 31.079423 5.102537 57.661741 -1.024043 0.042902 -0.045156 -0.007728 2.131271 -0.638357 -1.785160 -1.702366 0.551414 1.511816 0.000000 0.000000 -0.000001 -33.589675 -78.384474 -1.289357 5.177283 -1.100270 62.725083 -13.011228 8.406453 38.192263 13.458510 -99.177557 38.944854 -68.615438 -75.556495 -46.156291 -0.042902 -0.045156 -0.007728 24.325627 -27.709393 0.647393 -34.708341 -24.247913 -41.731250 0.000000 -0.000001 3.398696 0.099312 -0.010710 -0.032880 -19.952127 8.932443 -7.026751 5.502108 -0.556397 0.553153 -12.421235 -1.957966 4.162051 -0.000000 0.000000 0.000000 -0.099312 -0.010710 -0.032880 7.041899 -9.166739 -13.294280 84.969944 1.044933 -10.952229 43.756070 -2.396786 -7.260795 -0.000000 -0.000000 0.000000 
-0.011894 0.103299 0.991999 -0.000000 0.000000 0.000000 2.547775 5.970492 7.004202 -0.852216 -7.097233 -11.314570 0.000001 -0.000030 0.521546 -0.000000 0.000000 -0.000000 31.905344 73.063299 11.869767 -0.522840 -0.575181 8.752467 7.437536 7.533032 -2.127631 0.111888 -0.008712 0.003838 -29.235361 97.971817 31.079400 5.102541 57.661741 -1.024045 0.042902 -0.045156 -0.007728 2.131272 -0.638356 -1.785156 -1.702367 0.551416 1.511815 -0.000000 0.000000 0.000000 -27.995836 -78.509924 -2.279007 5.735017 -0.866060 69.544631 -13.416331 8.900183 38.598987 13.458501 -99.177557 38.944834 -68.615438 -75.556495 -46.156287 -0.042902 -0.045156 -0.007728 24.325623 -27.709389 0.647398 -34.708341 -24.247904 -41.731250 0.000000 -0.000002 4.483493 0.099312 -0.010710 -0.032880 -7.694947 6.272420 -5.867399 3.687085 -0.378821 0.364866 -15.472433 0.304868 4.201211 0.000002 -0.000000 -0.000000 -0.099312 -0.010710 -0.032880 -13.185538 -6.047182 -13.238677 88.125546 0.764307 -11.303436 41.859955 -1.908151 -6.987721 0.000001 0.000000 0.000000 
-0.011894 0.103336 0.986005 -0.000000 0.000000 0.000000 -0.445390 5.477234 4.430431 0.949636 -6.254095 -8.989900 0.000001 -0.000030 0.521546 0.000000 0.000000 -0.000001 26.480374 73.630710 8.906826 -0.531938 -0.586905 8.919354 6.410322 10.095800 -2.917817 0.111888 -0.008712 0.003838 -29.235378 97.971824 31.079430 5.102536 57.661741 -1.024046 0.042902 -0.045156 -0.007728 2.131272 -0.638360 -1.785159 -1.702367 0.551415 1.511818 0.000000 0.000000 0.000000 -20.667640 -78.700158 -3.479481 6.258165 -0.569118 76.323621 -13.838155 9.430773 38.865252 13.458501 -99.177557 38.944844 -68.615445 -75.556495 -46.156291 -0.042902 -0.045156 -0.007728 24.325625 -27.709391 0.647393 -34.708341 -24.247904 -41.731254 0.000000 -0.000002 5.833063 0.099312 -0.010710 -0.032880 4.558645 3.917659 -4.171138 2.081671 -0.216798 0.203035 -18.568559 2.580505 4.366938 0.000002 -0.000001 -0.000000 -0.099312 -0.010710 -0.032880 -33.743081 -3.078106 -12.073198 90.905221 0.501270 -11.599756 39.422581 -1.308006 -6.617975 0.000001 0.000000 0.000000 
-0.011894 0.103445 0.968083 -0.000000 0.000000 0.000000 -4.023708 4.646923 1.345443 3.114830 -3.730380 -6.300690 0.000001 -0.000030 0.521545 -0.000000 -0.000000 -0.000000 19.860331 74.414105 5.488805 -0.540606 -0.598139 9.078923 5.493169 12.250079 -4.022868 0.111888 -0.008712 0.003838 -29.235368 97.971817 31.079417 5.102536 57.661741 -1.024044 0.042902 -0.045156 -0.007728 2.131272 -0.638358 -1.785159 -1.702366 0.551416 1.511816 -0.000000 0.000000 0.000000 -11.720086 -78.966371 -4.770044 6.654811 -0.283877 81.826117 -14.197405 9.918233 38.851407 13.458512 -99.177557 38.944820 -68.615438 -75.556495 -46.156298 -0.042902 -0.045156 -0.007728 24.325627 -27.709388 0.647398 -34.708341 -24.247908 -41.731254 0.000000 -0.000002 7.393175 0.099312 -0.010710 -0.032880 14.436862 2.319628 -2.467872 1.023251 -0.107499 0.098827 -21.168739 4.456727 4.604777 0.000001 -0.000001 0.000000 -0.099312 -0.010710 -0.032880 -50.034766 -1.133546 -10.452752 92.727044 0.321126 -11.786974 36.490204 -0.627596 -6.147113 0.000000 0.000000 -0.000000 
-0.011894 0.103592 0.944101 -0.000000 0.000000 0.000000 -6.777119 3.865954 -1.763434 4.725786 -1.085782 -3.572400 0.000001 -0.000030 0.521546 0.000000 0.000000 -0.000001 12.269138 75.411675 1.901232 -0.547947 -0.607704 9.214535 4.801347 13.677053 -5.447922 0.111888 -0.008712 0.003838 -29.235368 97.971817 31.079427 5.102536 57.661741 -1.024045 0.042902 -0.045156 -0.007728 2.131272 -0.638358 -1.785159 -1.702367 0.551414 1.511816 0.000000 0.000000 0.000000 -1.485004 -79.306016 -5.970088 6.889198 -0.085802 85.280417 -14.431831 10.299706 38.475620 13.458500 -99.177557 38.944823 -68.615432 -75.556495 -46.156291 -0.042902 -0.045156 -0.007728 24.325625 -27.709391 0.647397 -34.708344 -24.247909 -41.731257 0.000000 -0.000002 9.089605 0.099312 -0.010710 -0.032880 20.558343 1.487904 -1.283500 0.665809 -0.070151 0.064088 -22.889284 5.659182 4.814696 0.000001 -0.000000 -0.000000 -0.099312 -0.010710 -0.032880 -59.827772 -0.215665 -9.240788 93.342294 0.258941 -11.848907 33.141785 0.092280 -5.578255 0.000001 -0.000000 0.000000 
-0.011894 0.103723 0.922810 -0.000000 0.000000 0.000000 -7.679416 3.398314 -4.365527 5.245954 0.015701 -1.029296 0.000001 -0.000030 0.521546 0.000000 0.000000 -0.000000 4.076642 76.570020 -1.476609 -0.553500 -0.614974 9.317397 4.373640 14.235639 -7.163198 0.111888 -0.008712 0.003838 -29.235371 97.971824 31.079420 5.102537 57.661741 -1.024045 0.042902 -0.045156 -0.007728 2.131271 -0.638355 -1.785160 -1.702366 0.551414 1.511816 0.000000 0.000000 0.000000 9.465269 -79.695624 -6.882782 6.964476 -0.016816 86.429446 -14.511507 10.540940 37.724689 13.458498 -99.177557 38.944851 -68.615445 -75.556488 -46.156298 -0.042902 -0.045156 -0.007728 24.325628 -27.709393 0.647393 -34.708337 -24.247908 -41.731254 0.000000 -0.000002 10.833296 0.099312 -0.010710 -0.032880 22.571470 1.243751 -0.867912 4.763781 -0.484890 0.475890 -23.558945 6.081135 4.916234 0.000001 -0.000000 0.000000 -0.099312 -0.010710 -0.032880 -62.989412 0.033984 -8.818818 89.313637 0.653658 -11.431632 29.485899 0.805599 -4.924788 0.000001 0.000000 -0.000000 
-0.011894 0.103852 0.901737 -0.000000 0.000000 0.000000 -6.796843 3.127334 -6.724281 5.007674 0.126750 1.646148 0.000000 -0.000030 0.521545 0.000000 0.000000 -0.000001 -4.251977 77.787918 -4.268458 -0.376566 -0.395815 6.149159 4.258590 14.181961 -10.047705 0.111888 -0.008712 0.003838 -29.235368 97.971817 31.079410 5.102540 57.661741 -1.024044 0.042902 -0.045156 -0.007728 2.131272 -0.638358 -1.785157 -1.702368 0.551413 1.511815 0.000000 -0.000000 0.000001 20.390116 -80.094418 -7.374653 6.768044 -0.191208 83.473060 -13.854637 10.702605 35.501131 13.458508 -99.177557 38.944840 -68.615438 -75.556495 -46.156294 -0.042902 -0.045156 -0.007728 24.325627 -27.709391 0.647394 -34.708344 -24.247908 -41.731257 0.000000 -0.000001 12.529693 0.099312 -0.010710 -0.032880 22.563631 1.245449 -0.859211 17.618058 -1.577417 1.940287 -20.583969 5.911174 5.147809 0.000001 -0.000000 -0.000000 -0.099312 -0.010710 -0.032880 -62.363554 -0.000093 -8.874963 76.664625 1.686360 -9.960435 25.650497 1.467633 -4.210684 -0.000003 -0.000000 0.000000 
-0.011893 0.104009 0.876064 -0.000000 0.000000 0.000000 -4.296325 2.844382 -9.160823 4.306213 0.208742 4.727740 0.000001 -0.000030 0.521545 -0.000000 -0.000000 -0.000000 -12.233186 78.946851 -6.226355 0.255449 0.225487 -3.835275 4.486008 13.742441 -14.920026 0.111888 -0.008712 0.003838 -29.235358 97.971817 31.079410 5.102541 57.661734 -1.024043 0.042902 -0.045156 -0.007728 2.131271 -0.638358 -1.785159 -1.702367 0.551412 1.511816 -0.000000 -0.000000 0.000001 30.533124 -80.459376 -7.438564 6.110444 -0.661384 74.362209 -11.876875 10.717989 30.668864 13.458507 -99.177557 38.944844 -68.615445 -75.556495 -46.156298 -0.042902 -0.045156 -0.007728 24.325628 -27.709393 0.647397 -34.708341 -24.247908 -41.731254 0.000000 -0.000001 14.089747 0.099312 -0.010710 -0.032880 22.550508 1.247194 -0.855434 38.744791 -2.585056 4.750020 -11.278036 5.392350 5.833144 0.000001 0.000000 -0.000001 -0.099312 -0.010710 -0.032880 -60.444763 -0.108901 -9.046439 55.694732 2.614267 -7.146905 21.767646 2.041577 -3.467806 0.000002 -0.000000 -0.000000 
